# xmcd CD database file
#
# Track frame offsets:
#	150
#	19875
#	46221
#	63980
#	90784
#	127550
#	146379
#	182375
#	193897
#	212957
#
# Disc length: 3392 seconds
#
# Revision: 0
# Processed by: cddbd v1.5.2PL0 Copyright (c) Steve Scherf et al.
# Submitted via: CDex 1.51
#
DISCID=7c0d3e0a
DTITLE=Byron Wallen - Meeting Ground
DYEAR=2007
DGENRE=Jazz
TTITLE0=Spirit of Bilal
TTITLE1=Captive Caravan
TTITLE2=Sailor of the Sands
TTITLE3=Initiation
TTITLE4=Freedom Struggle
TTITLE5=Resignation
TTITLE6=Zawiya
TTITLE7=M'allem
TTITLE8=Exaltation
TTITLE9=Meeting Ground
EXTD=YEAR: 2007
EXTT0=
EXTT1=
EXTT2=
EXTT3=
EXTT4=
EXTT5=
EXTT6=
EXTT7=
EXTT8=
EXTT9=
PLAYORDER=
